<?xml version="1.0" encoding="utf-8"?>
<!-- Generator: Adobe Illustrator 21.0.0, SVG Export Plug-In . SVG Version: 6.00 Build 0)  -->
<svg version="1.1" xmlns="http://www.w3.org/2000/svg" xmlns:xlink="http://www.w3.org/1999/xlink" x="0px" y="0px"
	 viewBox="0 0 300 300" style="enable-background:new 0 0 300 300;" xml:space="preserve">
<style type="text/css">
	.st0{fill:none;stroke:#232323;stroke-width:7;stroke-miterlimit:10;}
	.st1{display:none;}
	.st2{display:inline;}
</style>
<g id="Capa_1">
	<g>
		<polyline class="st0" points="98.2,234 2.7,234 2.7,75.1 244.8,75.1 244.8,234 149.3,234 		"/>
		<polygon class="st0" points="71,261.5 123.7,208.8 176.5,261.5 		"/>
		<polyline class="st0" points="192.8,75.1 192.8,36.6 297.9,36.6 297.9,261.5 192.8,261.5 192.8,235.2 		"/>
		<rect x="211.2" y="57.4" class="st0" width="69.7" height="13.4"/>
		<rect x="245.4" y="81.8" class="st0" width="35.5" height="13.4"/>
		<path class="st0" d="M246,196.7c6.4,0,11.6,5.2,11.6,11.6c0,6.4-5.2,11.6-11.6,11.6"/>
	</g>
</g>
<g id="Capa_2" class="st1">
	<g class="st2">
		<path class="st0" d="M86.5,221.5H42.7c-8.4,0-15.2-5.8-15.2-12.9v-76.9c0-7.1,6.9-12.9,15.2-12.9h214.8c8.4,0,15.2,5.8,15.2,12.9
			v76.9c0,7.1-6.9,12.9-15.2,12.9h-42.6"/>
		<path class="st0" d="M214.3,117.9V51.8c0-8.4-6.9-15.2-15.2-15.2h-97.9c-8.4,0-15.2,6.9-15.2,15.2v66.1"/>
		<path class="st0" d="M97.9,261.5h104.4c6.6,0,12-5.4,12-12v-69.3H85.9v69.3C85.9,256.1,91.3,261.5,97.9,261.5z"/>
		<circle class="st0" cx="239" cy="142.7" r="7"/>
		<line class="st0" x1="108.1" y1="200.5" x2="193.3" y2="200.5"/>
		<line class="st0" x1="106.9" y1="220.9" x2="192" y2="220.9"/>
		<line class="st0" x1="106.9" y1="241.2" x2="192" y2="241.2"/>
	</g>
</g>
<g id="Capa_3" class="st1">
	<g class="st2">
		<path class="st0" d="M70.5,167.2c-21.6-41.4-19.5-88,8.9-116.4l0,0c11.9,11.9,47.8,47.8,47.8,47.8l-22.3,22.3
			c-4.3,4.3-4.3,11.2,0,15.5l59.2,59.2c4.3,4.3,11.2,4.3,15.5,0l21.9-22.8l48,48c-24.4,24.4-61.9,29.5-98.2,16.9"/>
		<g>
			<circle class="st0" cx="96.7" cy="212" r="16.4"/>
			<path class="st0" d="M121.4,181.3l5.2-2.9c3-1.6,6.7-0.6,8.4,2.4l7.7,13.9c1.6,3,0.6,6.7-2.4,8.4l-5.2,2.9l0.3,13.4l5.1,3
				c2.9,1.7,3.9,5.5,2.1,8.4l-8.2,13.7c-1.7,2.9-5.5,3.9-8.4,2.1l-5.1-3l-10.8,5.9v5.9c0,3.4-2.8,6.1-6.1,6.1H88
				c-3.4,0-6.1-2.8-6.1-6.1v-5.9l-10.2-5.5l-5.2,2.9c-3,1.6-6.7,0.6-8.4-2.4l-7.7-13.9c-1.6-3-0.6-6.7,2.4-8.4l5.2-2.9l-0.3-13.4
				l-5.1-3c-2.9-1.7-3.9-5.5-2.1-8.4l8.2-13.7c1.7-2.9,5.5-3.9,8.4-2.1l5.1,3l10.8-5.9v-5.9c0-3.4,2.8-6.1,6.1-6.1h15.9
				c3.4,0,6.1,2.8,6.1,6.1v5.9L121.4,181.3z"/>
		</g>
		<line class="st0" x1="109.1" y1="63.8" x2="130.2" y2="42.6"/>
		<line class="st0" x1="117.2" y1="75.3" x2="137" y2="75.3"/>
		<line class="st0" x1="98.2" y1="36.6" x2="98.2" y2="56.3"/>
	</g>
</g>
</svg>
